# xmcd
#
# Track frame offsets: 
#        150
#        21699
#        27816
#        43702
#        61007
#        81056
#        99879
#        116412
#        129857
#        151183
#        169714
#        189702
#        206611
#        223189
#        263474
#
# Disc length: 3748 seconds
#
# Revision: 3
# Processed by: cddbd v1.5.2PL0 Copyright (c) Steve Scherf et al.
# Submitted via: ExactAudioCopy v1.0b3
#
DISCID=be0ea20f
DTITLE=Garth Brooks - Double Live - 25th Anniversary Edition - 25 Year
DTITLE=s of Live! [CD 2)
DYEAR=2014
DGENRE=Country
TTITLE0=Ain't Goin' Down ('Til the Sun Comes Up) [Live]
TTITLE1=Heart in New York [Live]
TTITLE2=Rodeo [Live]
TTITLE3=The Beaches of Cheyenne [Live]
TTITLE4=Two Pina Coladas [Live]
TTITLE5=Wild as the Wind (The Duet with Tricia Yearwood) [Live]
TTITLE6=Good Ride Cowboy [Live]
TTITLE7=To Make You Feel My Love [Live]
TTITLE8=That Summer [Live]
TTITLE9=American Honky-Tonk Bar Association [Live]
TTITLE10=Wrapped Up in You (Featuring Keb' Mo')  [Live]
TTITLE11=If Tomorrow Never Comes [Live]
TTITLE12=The Fever [Live]
TTITLE13=Friends In Low Places (The Long Version) [Live]
TTITLE14=The Dance [Live]
EXTD=
EXTT0=
EXTT1=
EXTT2=
EXTT3=
EXTT4=
EXTT5=
EXTT6=
EXTT7=
EXTT8=
EXTT9=
EXTT10=
EXTT11=
EXTT12=
EXTT13=
EXTT14=
PLAYORDER=
